<svg width="72" height="52" viewBox="0 0 72 52" fill="none" xmlns="http://www.w3.org/2000/svg">
<path d="M4.71399 22.1985C7.30043 22.1985 9.38628 24.5451 9.38628 27.4549V52H0V27.4549C0 24.5451 2.08585 22.1985 4.67229 22.1985H4.71399Z" fill="#FB923C"/>
<path d="M20.1075 8.11911C22.6939 8.11911 24.7798 10.4657 24.7798 13.3754V52H15.3935V13.3754C15.3935 10.4657 17.4793 8.11911 20.0657 8.11911H20.1075Z" fill="#FB923C"/>
<path d="M35.5427 0C38.1291 0 40.215 2.34657 40.215 5.25631V52H30.8287V5.25631C30.8287 2.34657 32.9145 0 35.501 0H35.5427Z" fill="#FB923C"/>
<path d="M50.9362 14.7365C53.5226 14.7365 55.6085 17.083 55.6085 19.9928V52H46.2222V19.9928C46.2222 17.083 48.308 14.7365 50.8945 14.7365H50.9362Z" fill="#FB923C"/>
<path d="M66.3714 26.9856C68.9578 26.9856 71.0437 29.3321 71.0437 32.2419V52H61.6574V32.2419C61.6574 29.3321 63.7433 26.9856 66.3297 26.9856H66.3714Z" fill="#FB923C"/>
</svg>
